<?xml version="1.0" encoding="UTF-8"?> <svg xmlns="http://www.w3.org/2000/svg" width="123" height="51" viewBox="0 0 123 51" fill="none"><path fill-rule="evenodd" clip-rule="evenodd" d="M0 0H34.3333V34.3333H48V48H34.3333V34.3333H0V0ZM24 10.6667H10.6667V24H24V10.6667Z" fill="url(#paint0_radial_404_594)"></path><path d="M43.872 14.24C43.1253 14.24 42.424 14.1093 41.768 13.848C41.1173 13.5813 40.544 13.192 40.048 12.68C39.5573 12.168 39.1733 11.5413 38.896 10.8C38.6187 10.0533 38.48 9.2 38.48 8.24C38.48 6.98133 38.7147 5.90667 39.184 5.016C39.6533 4.12 40.296 3.43467 41.112 2.96C41.928 2.48 42.848 2.24 43.872 2.24C45.2907 2.24 46.4133 2.57067 47.24 3.232C48.072 3.888 48.6347 4.81067 48.928 6L46.96 6.312C46.7413 5.62933 46.384 5.08533 45.888 4.68C45.392 4.26933 44.76 4.064 43.992 4.064C43.2187 4.05333 42.576 4.22133 42.064 4.568C41.552 4.91467 41.1653 5.40267 40.904 6.032C40.648 6.66133 40.52 7.39733 40.52 8.24C40.52 9.08267 40.648 9.816 40.904 10.44C41.16 11.0587 41.544 11.5413 42.056 11.888C42.5733 12.2347 43.2187 12.4133 43.992 12.424C44.5733 12.4293 45.0827 12.3253 45.52 12.112C45.9573 11.8933 46.3147 11.5653 46.592 11.128C46.8693 10.6853 47.056 10.1333 47.152 9.472H45.12V7.96H49.2C49.2107 8.04533 49.2187 8.17067 49.224 8.336C49.2293 8.50133 49.232 8.6 49.232 8.632C49.232 9.72 49.016 10.688 48.584 11.536C48.1573 12.3787 47.544 13.04 46.744 13.52C45.944 14 44.9867 14.24 43.872 14.24ZM55.7108 14.24C54.5588 14.24 53.5721 13.9893 52.7508 13.488C51.9294 12.9813 51.2974 12.2773 50.8548 11.376C50.4174 10.4747 50.1988 9.42933 50.1988 8.24C50.1988 7.05067 50.4174 6.00533 50.8548 5.104C51.2974 4.20267 51.9294 3.50133 52.7508 3C53.5721 2.49333 54.5588 2.24 55.7108 2.24C56.8628 2.24 57.8494 2.49333 58.6708 3C59.4974 3.50133 60.1294 4.20267 60.5668 5.104C61.0094 6.00533 61.2308 7.05067 61.2308 8.24C61.2308 9.42933 61.0094 10.4747 60.5668 11.376C60.1294 12.2773 59.4974 12.9813 58.6708 13.488C57.8494 13.9893 56.8628 14.24 55.7108 14.24ZM55.7108 12.424C56.4841 12.4293 57.1268 12.2587 57.6388 11.912C58.1561 11.5653 58.5428 11.0773 58.7988 10.448C59.0601 9.81867 59.1908 9.08267 59.1908 8.24C59.1908 7.39733 59.0601 6.66667 58.7988 6.048C58.5428 5.424 58.1561 4.93867 57.6388 4.592C57.1268 4.24533 56.4841 4.06667 55.7108 4.056C54.9374 4.05067 54.2948 4.22133 53.7828 4.568C53.2708 4.91467 52.8841 5.40267 52.6228 6.032C52.3668 6.66133 52.2388 7.39733 52.2388 8.24C52.2388 9.08267 52.3668 9.816 52.6228 10.44C52.8788 11.0587 53.2628 11.5413 53.7748 11.888C54.2921 12.2347 54.9374 12.4133 55.7108 12.424ZM62.8231 14V2.48H67.5831C67.6951 2.48 67.8391 2.48533 68.0151 2.496C68.1911 2.50133 68.3538 2.51733 68.5031 2.544C69.1698 2.64533 69.7191 2.86667 70.1511 3.208C70.5885 3.54933 70.9111 3.98133 71.1191 4.504C71.3325 5.02133 71.4391 5.59733 71.4391 6.232C71.4391 7.17067 71.2018 7.97867 70.7271 8.656C70.2525 9.328 69.5245 9.744 68.5431 9.904L67.7191 9.976H64.7511V14H62.8231ZM69.4391 14L67.1671 9.312L69.1271 8.88L71.6231 14H69.4391ZM64.7511 8.176H67.5031C67.6098 8.176 67.7298 8.17067 67.8631 8.16C67.9965 8.14933 68.1191 8.128 68.2311 8.096C68.5511 8.016 68.8018 7.87467 68.9831 7.672C69.1698 7.46933 69.3005 7.24 69.3751 6.984C69.4551 6.728 69.4951 6.47733 69.4951 6.232C69.4951 5.98667 69.4551 5.736 69.3751 5.48C69.3005 5.21867 69.1698 4.98667 68.9831 4.784C68.8018 4.58133 68.5511 4.44 68.2311 4.36C68.1191 4.328 67.9965 4.30933 67.8631 4.304C67.7298 4.29333 67.6098 4.288 67.5031 4.288H64.7511V8.176ZM73.3856 14V2.48H77.0576C77.1536 2.48 77.343 2.48267 77.6256 2.488C77.9136 2.49333 78.191 2.512 78.4576 2.544C79.3696 2.66133 80.1403 2.98667 80.7696 3.52C81.4043 4.048 81.8843 4.72267 82.2096 5.544C82.535 6.36533 82.6976 7.264 82.6976 8.24C82.6976 9.216 82.535 10.1147 82.2096 10.936C81.8843 11.7573 81.4043 12.4347 80.7696 12.968C80.1403 13.496 79.3696 13.8187 78.4576 13.936C78.1963 13.968 77.9216 13.9867 77.6336 13.992C77.3456 13.9973 77.1536 14 77.0576 14H73.3856ZM75.3456 12.184H77.0576C77.2176 12.184 77.4203 12.1787 77.6656 12.168C77.9163 12.1573 78.1376 12.1333 78.3296 12.096C78.8736 11.9947 79.3163 11.752 79.6576 11.368C79.999 10.984 80.2496 10.5173 80.4096 9.968C80.575 9.41867 80.6576 8.84267 80.6576 8.24C80.6576 7.616 80.575 7.02933 80.4096 6.48C80.2443 5.93067 79.9883 5.46933 79.6416 5.096C79.3003 4.72267 78.863 4.48533 78.3296 4.384C78.1376 4.34133 77.9163 4.31733 77.6656 4.312C77.4203 4.30133 77.2176 4.296 77.0576 4.296H75.3456V12.184ZM89.4608 14.24C88.3088 14.24 87.3221 13.9893 86.5008 13.488C85.6794 12.9813 85.0474 12.2773 84.6048 11.376C84.1674 10.4747 83.9488 9.42933 83.9488 8.24C83.9488 7.05067 84.1674 6.00533 84.6048 5.104C85.0474 4.20267 85.6794 3.50133 86.5008 3C87.3221 2.49333 88.3088 2.24 89.4608 2.24C90.6128 2.24 91.5994 2.49333 92.4208 3C93.2474 3.50133 93.8794 4.20267 94.3168 5.104C94.7594 6.00533 94.9808 7.05067 94.9808 8.24C94.9808 9.42933 94.7594 10.4747 94.3168 11.376C93.8794 12.2773 93.2474 12.9813 92.4208 13.488C91.5994 13.9893 90.6128 14.24 89.4608 14.24ZM89.4608 12.424C90.2341 12.4293 90.8768 12.2587 91.3888 11.912C91.9061 11.5653 92.2928 11.0773 92.5488 10.448C92.8101 9.81867 92.9408 9.08267 92.9408 8.24C92.9408 7.39733 92.8101 6.66667 92.5488 6.048C92.2928 5.424 91.9061 4.93867 91.3888 4.592C90.8768 4.24533 90.2341 4.06667 89.4608 4.056C88.6874 4.05067 88.0448 4.22133 87.5328 4.568C87.0208 4.91467 86.6341 5.40267 86.3728 6.032C86.1168 6.66133 85.9888 7.39733 85.9888 8.24C85.9888 9.08267 86.1168 9.816 86.3728 10.44C86.6288 11.0587 87.0128 11.5413 87.5248 11.888C88.0421 12.2347 88.6874 12.4133 89.4608 12.424ZM98.6808 14L95.0488 2.48H97.0328L100.073 12.128L103.153 2.48H105.137L101.505 14H98.6808ZM43.992 30.24C42.84 30.24 41.8533 29.9893 41.032 29.488C40.2107 28.9813 39.5787 28.2773 39.136 27.376C38.6987 26.4747 38.48 25.4293 38.48 24.24C38.48 23.0507 38.6987 22.0053 39.136 21.104C39.5787 20.2027 40.2107 19.5013 41.032 19C41.8533 18.4933 42.84 18.24 43.992 18.24C45.32 18.24 46.4267 18.5733 47.312 19.24C48.1973 19.9013 48.8187 20.7947 49.176 21.92L47.232 22.456C47.008 21.704 46.6267 21.1173 46.088 20.696C45.5493 20.2693 44.8507 20.056 43.992 20.056C43.2187 20.056 42.5733 20.2293 42.056 20.576C41.544 20.9227 41.1573 21.4107 40.896 22.04C40.64 22.664 40.5093 23.3973 40.504 24.24C40.504 25.0827 40.632 25.8187 40.888 26.448C41.1493 27.072 41.5387 27.5573 42.056 27.904C42.5733 28.2507 43.2187 28.424 43.992 28.424C44.8507 28.424 45.5493 28.2107 46.088 27.784C46.6267 27.3573 47.008 26.7707 47.232 26.024L49.176 26.56C48.8187 27.6853 48.1973 28.5813 47.312 29.248C46.4267 29.9093 45.32 30.24 43.992 30.24ZM55.8045 30.24C54.6525 30.24 53.6658 29.9893 52.8445 29.488C52.0232 28.9813 51.3912 28.2773 50.9485 27.376C50.5112 26.4747 50.2925 25.4293 50.2925 24.24C50.2925 23.0507 50.5112 22.0053 50.9485 21.104C51.3912 20.2027 52.0232 19.5013 52.8445 19C53.6658 18.4933 54.6525 18.24 55.8045 18.24C56.9565 18.24 57.9432 18.4933 58.7645 19C59.5912 19.5013 60.2232 20.2027 60.6605 21.104C61.1032 22.0053 61.3245 23.0507 61.3245 24.24C61.3245 25.4293 61.1032 26.4747 60.6605 27.376C60.2232 28.2773 59.5912 28.9813 58.7645 29.488C57.9432 29.9893 56.9565 30.24 55.8045 30.24ZM55.8045 28.424C56.5778 28.4293 57.2205 28.2587 57.7325 27.912C58.2498 27.5653 58.6365 27.0773 58.8925 26.448C59.1538 25.8187 59.2845 25.0827 59.2845 24.24C59.2845 23.3973 59.1538 22.6667 58.8925 22.048C58.6365 21.424 58.2498 20.9387 57.7325 20.592C57.2205 20.2453 56.5778 20.0667 55.8045 20.056C55.0312 20.0507 54.3885 20.2213 53.8765 20.568C53.3645 20.9147 52.9778 21.4027 52.7165 22.032C52.4605 22.6613 52.3325 23.3973 52.3325 24.24C52.3325 25.0827 52.4605 25.816 52.7165 26.44C52.9725 27.0587 53.3565 27.5413 53.8685 27.888C54.3858 28.2347 55.0312 28.4133 55.8045 28.424ZM62.9169 30V18.48H66.5889C66.6849 18.48 66.8742 18.4827 67.1569 18.488C67.4449 18.4933 67.7222 18.512 67.9889 18.544C68.9009 18.6613 69.6715 18.9867 70.3009 19.52C70.9355 20.048 71.4155 20.7227 71.7409 21.544C72.0662 22.3653 72.2289 23.264 72.2289 24.24C72.2289 25.216 72.0662 26.1147 71.7409 26.936C71.4155 27.7573 70.9355 28.4347 70.3009 28.968C69.6715 29.496 68.9009 29.8187 67.9889 29.936C67.7275 29.968 67.4529 29.9867 67.1649 29.992C66.8769 29.9973 66.6849 30 66.5889 30H62.9169ZM64.8769 28.184H66.5889C66.7489 28.184 66.9515 28.1787 67.1969 28.168C67.4475 28.1573 67.6689 28.1333 67.8609 28.096C68.4049 27.9947 68.8475 27.752 69.1889 27.368C69.5302 26.984 69.7809 26.5173 69.9409 25.968C70.1062 25.4187 70.1889 24.8427 70.1889 24.24C70.1889 23.616 70.1062 23.0293 69.9409 22.48C69.7755 21.9307 69.5195 21.4693 69.1729 21.096C68.8315 20.7227 68.3942 20.4853 67.8609 20.384C67.6689 20.3413 67.4475 20.3173 67.1969 20.312C66.9515 20.3013 66.7489 20.296 66.5889 20.296H64.8769V28.184ZM74.12 30V18.48H81.56V20.288H76.048V23.128H80.6V24.936H76.048V28.192H81.56V30H74.12Z" fill="#111111"></path><defs><radialGradient id="paint0_radial_404_594" cx="0" cy="0" r="1" gradientTransform="matrix(-17.7601 32.1501 -30.9977 -17.1236 35.92 13.0855)" gradientUnits="userSpaceOnUse"><stop stop-color="#0068FA"></stop><stop offset="1" stop-color="#3AC3FE"></stop></radialGradient></defs></svg>
